# xmcd
#
# Track frame offsets:
#   150
#   15303
#   32556
#   50911
#   69552
#   85522
#   104618
#   118258
#   121418
#   139431
#   156804
#   173352
#   188864
#   206268
#   221896
#   235973
#
# Disc length: 3359 seconds
#
# Revision: 0
# Processed by: cddbd v1.5.1PL0 Copyright (c) Steve Scherf et al.
# Submitted via: GXTranscoder 2.0.1939
#
DISCID=e10d1d10
DTITLE=t - h
DYEAR=1900
DGENRE=Children's Music
TTITLE0=e
TTITLE1=h
TTITLE2=g
TTITLE3=g
TTITLE4=g
TTITLE5=g
TTITLE6=g
TTITLE7=h
TTITLE8=j
TTITLE9=k
TTITLE10=ll
TTITLE11=k
TTITLE12=i8
TTITLE13=ff
TTITLE14=ff
TTITLE15=ee
EXTD=
EXTT0=
EXTT1=
EXTT2=
EXTT3=
EXTT4=
EXTT5=
EXTT6=
EXTT7=
EXTT8=
EXTT9=
EXTT10=
EXTT11=
EXTT12=
EXTT13=
EXTT14=
EXTT15=
PLAYORDER=
